<svg width="108" height="43" viewBox="0 0 108 43" fill="none" xmlns="http://www.w3.org/2000/svg">
<path d="M0.5 36.0406C11 29.7073 31.4 14.2406 29 3.04061C26.6 -8.15939 24.6667 20.3739 24 36.0406C23.5 39.0406 23.8 44.1406 29 40.5406C34.2 36.9406 40.5 28.7073 43 25.0406C45.1667 22.5406 49.3 19.0406 48.5 25.0406C47.7 31.0406 51.5 30.8739 53.5 30.0406C55 30.0406 57.7 28.6406 56.5 23.0406C55 16.0406 47 8.04059 39 16.0406C32.6 22.4406 39 29.3739 43 32.0406C45 33.3739 49.6 36.0406 52 36.0406C55 36.0406 63 38.0406 68 32.0406C72 27.2406 72.3333 24.0406 72 23.0406C72 22.3739 71.6 21.4406 70 23.0406C68.4 24.6406 70.6667 27.3739 72 28.5406C73.1667 29.0406 75.8 30.0406 77 30.0406C78.5 30.0406 85.5 31.5406 83.5 25.0406C81.9 19.8406 78.5 19.8739 77 20.5406C75 21.5406 72.5 26.0406 78.5 36.0406C86 48.5406 92 20.5406 107.5 20.5406" stroke="black" stroke-linecap="round"/>
</svg>
